<svg xmlns="http://www.w3.org/2000/svg"
     width="24"
     height="24"
     viewBox="0 0 1024 1024"
     fill="none"
     aria-hidden="true">
  <path
    d="M646.01 194.5C625.44 223.17 604.88 251.83 584.32 280.5C588.26 282.78 594.99 281.4 599.5 281.37C611.5 281.28 623.5 281.33 635.5 281.31C671.5 281.28 707.5 281.32 743.5 281.26C754.5 281.24 765.5 281.22 776.5 281.3C781.54 281.33 787.85 280.39 792.5 282.03C706.72 401.08 620.94 520.13 535.16 639.18C613.12 639.18 691.08 639.18 769.04 639.18C770.64 644.21 769.73 650.21 769.72 655.5C769.7 666.17 769.7 676.83 769.69 687.5C769.67 711.83 769.66 736.17 769.66 760.5C769.66 769.86 771.12 787.53 769.21 795.86C583.35 795.86 397.49 795.86 211.64 795.86C214.56 788.16 225.17 776.11 230.4 768.89C244.54 749.36 258.65 729.8 272.85 710.32C317.98 648.41 362.65 586.18 407.65 524.18C422.94 503.11 438.18 482 453.42 460.89C457.95 454.62 470.72 440.04 472.04 433.5C466.3 432.76 460.31 433.16 454.5 433.15C443.5 433.13 432.5 433.1 421.5 433.09C388.5 433.06 355.5 433.09 322.5 433.15C309.17 433.17 295.83 433.2 282.5 433.19C276.85 433.18 269.4 434.42 264.23 432.5C267.95 425.74 273.42 419.65 277.91 413.37C287.33 400.16 297.02 387.14 306.45 373.93C333.48 336.05 361.06 298.54 388.38 260.85C399.72 245.2 411.12 229.59 422.43 213.92C425.79 209.27 429.17 204.65 432.5 199.99C433.7 198.3 435.03 195.46 436.92 194.44C440.85 192.33 448.11 193.71 452.5 193.7C464.83 193.66 477.17 193.66 489.5 193.66C525.5 193.65 561.5 193.62 597.5 193.65C608.17 193.66 618.83 193.64 629.5 193.71C634.81 193.74 641.08 192.86 646.01 194.5Z"
    stroke="currentColor"
    stroke-width="64"
    stroke-linecap="round"
    stroke-linejoin="round" />
</svg>
